<svg width="38" height="30" viewBox="0 0 38 30" fill="none" xmlns="http://www.w3.org/2000/svg">
<path fill-rule="evenodd" clip-rule="evenodd" d="M0 0H38V30H0V0Z" fill="white"/>
<path fill-rule="evenodd" clip-rule="evenodd" d="M1.67255 27.6566H1.56392C1.56392 27.6138 1.53672 27.5493 1.53672 27.5277C1.53672 27.5064 1.53672 27.4636 1.4551 27.4636H1.29187V27.6566H1.21025V27.2058H1.4551C1.56392 27.2058 1.64534 27.2275 1.64534 27.3131C1.64534 27.3775 1.61814 27.3991 1.59113 27.4203C1.61833 27.4419 1.64534 27.4634 1.64534 27.5064V27.5921C1.64534 27.6138 1.64534 27.6138 1.67255 27.6138V27.6566ZM1.56392 27.3347C1.56392 27.2703 1.50951 27.2703 1.48231 27.2703H1.29187V27.3991H1.4551C1.50951 27.3991 1.56392 27.3775 1.56392 27.3347V27.3347ZM2.02622 27.4205C2.02622 27.163 1.75436 26.9481 1.40069 26.9481C1.07442 26.9481 0.802368 27.163 0.802368 27.4205C0.802368 27.6995 1.07442 27.9145 1.40069 27.9145C1.75416 27.9143 2.02622 27.6995 2.02622 27.4205ZM1.9446 27.4205C1.9446 27.6567 1.69995 27.8284 1.40069 27.8284C1.10143 27.8284 0.883984 27.6566 0.883984 27.4205C0.883984 27.2058 1.10163 27.0125 1.40069 27.0125C1.69975 27.0125 1.9446 27.2058 1.9446 27.4205ZM35.4494 18.7467C35.4494 19.3908 34.9327 19.6911 34.0079 19.6911H32.2405V19.0469H34.0079C34.1711 19.0469 34.3072 19.0256 34.3618 18.9828C34.416 18.9396 34.4704 18.8752 34.4704 18.7895C34.4704 18.7034 34.4162 18.6176 34.3618 18.5748C34.3072 18.5317 34.1985 18.5104 34.0353 18.5104C33.1925 18.4888 32.1317 18.5317 32.1317 17.5872C32.1317 17.1576 32.4852 16.6852 33.437 16.6852H35.259V17.3294H33.5728C33.41 17.3294 33.301 17.3294 33.2193 17.3722C33.1377 17.4367 33.0835 17.5011 33.0835 17.6085C33.0835 17.7159 33.1651 17.7803 33.2738 17.8234C33.3828 17.8447 33.4916 17.8662 33.6276 17.8662H34.1169C34.6336 17.8662 34.9601 17.952 35.1777 18.1025C35.3406 18.2527 35.4494 18.4461 35.4494 18.7467V18.7467ZM31.6148 18.1025C31.3972 17.952 31.0707 17.8662 30.554 17.8662H30.0647C29.9289 17.8662 29.8199 17.8446 29.7112 17.8234C29.6022 17.7803 29.521 17.7159 29.521 17.6085C29.521 17.5011 29.548 17.4367 29.6568 17.3722C29.7384 17.3294 29.8471 17.3294 30.0103 17.3294H31.6964V16.6852H29.8745C28.8953 16.6852 28.5688 17.1576 28.5688 17.5872C28.5688 18.5316 29.6296 18.4888 30.4728 18.5104C30.6356 18.5104 30.7446 18.5317 30.7989 18.5748C30.8531 18.6176 30.9079 18.7034 30.9079 18.7895C30.9079 18.8752 30.8533 18.9396 30.7989 18.9828C30.7172 19.0256 30.6086 19.0469 30.4454 19.0469H28.6776V19.6911H30.4454C31.3698 19.6911 31.8867 19.3907 31.8867 18.7467C31.8867 18.4461 31.7781 18.2527 31.6148 18.1025V18.1025ZM28.1337 19.0687H25.9857V18.4674H28.0795V17.8665H25.9857V17.3081H28.1337V16.6855H25.0881V19.6912H28.1337V19.0687ZM24.1089 16.8359C23.8096 16.707 23.4562 16.6854 22.9939 16.6854H20.9V19.6911H21.8244V18.5962H22.8036C23.1297 18.5962 23.3203 18.6178 23.4564 18.725C23.6196 18.8752 23.6196 19.1329 23.6196 19.3262V19.6911H24.5168V19.1113C24.5168 18.8323 24.4898 18.7034 24.381 18.5532C24.2993 18.4671 24.1365 18.3599 23.9189 18.2955C24.1633 18.2313 24.5716 17.9736 24.5716 17.5011C24.5714 17.1578 24.4082 16.9645 24.1089 16.8359V16.8359ZM18.9418 16.6854H16.0319L14.8624 17.6731L13.7474 16.6854H10.0761V19.6911H13.6932L14.8626 18.7034L15.9776 19.6911H17.7454V18.6822H18.8876C19.6762 18.6822 20.4652 18.5104 20.4652 17.6731C20.465 16.8572 19.649 16.6854 18.9418 16.6854ZM23.3746 17.9308C23.2387 17.9736 23.1027 17.9736 22.9395 17.9736L21.8244 17.9952V17.3079H22.9395C23.1027 17.3079 23.2659 17.3079 23.3746 17.3724C23.4836 17.4155 23.5648 17.5012 23.5648 17.6301C23.5648 17.759 23.4836 17.8664 23.3746 17.9308V17.9308ZM18.9418 18.081H17.7452V17.3079H18.9418C19.2683 17.3079 19.4858 17.4155 19.4858 17.6731C19.4858 17.9308 19.2681 18.081 18.9418 18.081ZM15.4335 18.1882L16.8476 17.0076V19.4336L15.4335 18.1882ZM13.2307 19.0687H10.9734V18.4674H12.9858V17.8665H10.9734V17.3081H13.2579L14.2641 18.1884L13.2307 19.0687V19.0687ZM32.9201 14.5169H31.6148L29.9015 12.2625V14.5169H28.0525L27.6986 13.8512H25.795L25.4416 14.5169H24.3808C23.9457 14.5169 23.3746 14.431 23.0485 14.1733C22.7492 13.9157 22.586 13.5722 22.586 13.0354C22.586 12.5845 22.6676 12.1766 23.0753 11.8546C23.3471 11.6183 23.8368 11.5111 24.4622 11.5111H25.3324V12.1553H24.4622C24.1361 12.1553 23.9455 12.1982 23.7552 12.3271C23.592 12.456 23.5104 12.6921 23.5104 13.0141C23.5104 13.3361 23.592 13.5723 23.7552 13.7227C23.8911 13.8299 24.1361 13.8729 24.3806 13.8729H24.7886L26.0939 11.5112H27.4538L28.9767 14.3452V11.5111H30.391L31.9955 13.5937V11.5111H32.9199V14.5169H32.9201V14.5169ZM22.1237 11.5111H21.1993V14.5169H22.1237V11.5111V11.5111ZM20.1927 11.6399C19.8934 11.5111 19.5674 11.5111 19.1051 11.5111H17.0109V14.5169H17.9082V13.4218H18.8872C19.2137 13.4218 19.4313 13.4433 19.5672 13.5507C19.7304 13.7011 19.703 13.9588 19.703 14.1305V14.5169H20.6274V13.9157C20.6274 13.6581 20.6004 13.5292 20.4646 13.3789C20.3829 13.293 20.2197 13.1856 20.0295 13.1213C20.2739 13.0354 20.6822 12.7993 20.6822 12.3269C20.6824 11.9834 20.4918 11.7901 20.1927 11.6399ZM16.3581 13.8944H14.2369V13.2931H16.3309V12.6706H14.2369V12.1338H16.3581V11.5112H13.3123V14.5171H16.3581V13.8944ZM12.6324 11.5111H11.1367L10.0216 13.5507L8.825 11.5111H7.3565V14.3451L5.80638 11.5111H4.44671L2.81497 14.5169H3.79397L4.14745 13.8512H6.05103L6.40451 14.5169H8.25388V12.1553L9.58635 14.5169H10.3749L11.7076 12.1553V14.5169H12.6322V11.5111H12.6324ZM27.3726 13.2072L26.7468 12.0264L26.1215 13.2072H27.3726ZM19.4858 12.735C19.3499 12.7994 19.2139 12.7994 19.0235 12.7994H17.9082V12.1339H19.0233C19.1865 12.1339 19.3765 12.1339 19.4856 12.1769C19.5942 12.2413 19.6488 12.3272 19.6488 12.456C19.6488 12.5847 19.5944 12.6919 19.4858 12.735V12.735ZM4.47371 13.2072L5.09924 12.0264L5.72477 13.2072H4.47371V13.2072ZM35.232 2.08569H2.78757V12.9067L3.9026 10.91H6.26848L6.59494 11.4038V10.91H9.36891L9.99443 11.9834L10.5928 10.91H19.4313C19.839 10.91 20.1925 10.9744 20.4648 11.1461V10.91H22.8851V11.1461C23.2927 10.9743 23.8094 10.91 24.408 10.91H27.9161L28.2425 11.4038V10.91H30.8261L31.2069 11.4038V10.91H33.7359V15.1181H31.1797L30.6904 14.4741V15.1181H27.5084L27.1549 14.4311H26.366L26.0125 15.1181H24.3537C23.701 15.1181 23.2113 14.9893 22.8852 14.8605V15.1181H18.9418V14.1519C18.9418 14.0231 18.9146 14.0016 18.8058 14.0016H18.67V15.118H11.055V14.5812L10.7832 15.118H9.17867L8.90681 14.6027V15.118H5.83359L5.50732 14.431H4.71856L4.36509 15.118H2.78757V27.8069H35.232V20.099C34.8785 20.2279 34.3888 20.2923 33.8993 20.2923H31.5332V20.0346C31.2613 20.2065 30.7717 20.2923 30.3096 20.2923H22.8578V19.3262C22.8578 19.1974 22.8308 19.1974 22.6946 19.1974H22.5588V20.2923H20.1111V19.1544C19.7034 19.3046 19.2409 19.3046 18.833 19.3046H18.561V20.2923H15.5696L14.8626 19.6481L14.0741 20.2923H9.26009V16.0843H14.1553L14.8624 16.7282L15.624 16.0843H18.9146C19.2951 16.0843 19.9208 16.1271 20.1927 16.3417V16.0843H23.1297C23.429 16.0843 24.0003 16.1271 24.3808 16.3417V16.0843H28.8137V16.3419C29.0585 16.1701 29.521 16.0845 29.9287 16.0845H32.4034V16.3419C32.6756 16.1917 33.0561 16.0845 33.5458 16.0845H35.232V2.08569V2.08569Z" fill="#A3B7BE"/>
</svg>
